inDegrees=no
num_controls=7
num_derivatives=13
num_iterations=80
num_multipliers=7
num_parameters=0
num_slacks=7
num_states=26
objective=0.429309
objective_accelerations=0.002062
objective_balance=0.001637
objective_effort=0.003851
objective_height=0.400769
objective_ligament=0.020989
solver_duration=1066.020722
status=Solve_Succeeded
success=true
DataType=double
version=3
OpenSimVersion=4.5
endheader
time	/jointset/ground_pelvis/pelvis_tilt/value	/jointset/ground_pelvis/pelvis_tx/value	/jointset/ground_pelvis/pelvis_ty/value	/jointset/hip_l/hip_flexion_l/value	/jointset/hip_l/hip_adduction_l/value	/jointset/hip_l/hip_rotation_l/value	/jointset/back/lumbar_extension/value	/jointset/patellofemoral_l/patellar_flexion_l/value	/jointset/knee_l/knee_flexion_l/value	/jointset/knee_l/knee_adduction_l/value	/jointset/knee_l/knee_rotation_l/value	/jointset/ankle_l/ankle_angle_l/value	/jointset/subtalar_l/subtalar_angle_l/value	/jointset/ground_pelvis/pelvis_tilt/speed	/jointset/ground_pelvis/pelvis_tx/speed	/jointset/ground_pelvis/pelvis_ty/speed	/jointset/hip_l/hip_flexion_l/speed	/jointset/hip_l/hip_adduction_l/speed	/jointset/hip_l/hip_rotation_l/speed	/jointset/back/lumbar_extension/speed	/jointset/patellofemoral_l/patellar_flexion_l/speed	/jointset/knee_l/knee_flexion_l/speed	/jointset/knee_l/knee_adduction_l/speed	/jointset/knee_l/knee_rotation_l/speed	/jointset/ankle_l/ankle_angle_l/speed	/jointset/subtalar_l/subtalar_angle_l/speed	/forceset/tau_hip_flexion_l	/forceset/tau_hip_adduction_l	/forceset/tau_hip_rotation_l	/forceset/tau_knee_flexion_l	/forceset/tau_ankle_angle_l	/forceset/tau_subtalar_angle_l	/forceset/tau_lumbar_extension	lambda_cid13_p0	lambda_cid13_p1	lambda_cid13_p2	lambda_cid13_p3	lambda_cid13_p4	lambda_cid13_p5	lambda_cid14_p0	/jointset/ground_pelvis/pelvis_tilt/accel	/jointset/ground_pelvis/pelvis_tx/accel	/jointset/ground_pelvis/pelvis_ty/accel	/jointset/hip_l/hip_flexion_l/accel	/jointset/hip_l/hip_adduction_l/accel	/jointset/hip_l/hip_rotation_l/accel	/jointset/back/lumbar_extension/accel	/jointset/patellofemoral_l/patellar_flexion_l/accel	/jointset/knee_l/knee_flexion_l/accel	/jointset/knee_l/knee_adduction_l/accel	/jointset/knee_l/knee_rotation_l/accel	/jointset/ankle_l/ankle_angle_l/accel	/jointset/subtalar_l/subtalar_angle_l/accel	gamma_cid13_p0	gamma_cid13_p1	gamma_cid13_p2	gamma_cid13_p3	gamma_cid13_p4	gamma_cid13_p5	gamma_cid14_p0
0.5	0.04354748396680461	0.1213086995382706	0.9086238632617537	0.1227528714456729	-0.2959683541691749	-0.2846433845783141	-0.2048397122916807	0.1930498636595466	0.1930498636595459	-0.02163218037840939	-0.1744168250944851	0.119134558957103	0.1721102212490632	-0.1039544414487109	0.07159596829484242	-0.00215583991488527	-0.003936105305366937	0.03049421599975867	-0.04517934698038549	0.05954123800111671	-0.05895784547469853	-0.05895784547470197	0.05052471321921759	0.001059820308579248	0.06171780609271955	0.05933336060332559	0.04215814014126278	0.0442902042669712	-0.003912023399047242	-0.1271702863203876	0.04865240842393211	-0.06287222307315718	0.01265043345095445	-16.2970706798711	28.14509290323366	-2.467849559336998	2.233018668396961	-461.6469497159479	-27.70823663439927	-25.76155323260446	-0.08429923471170629	-0.03301942916010953	-0.0006395335997117733	0.04734085903878261	0.04564204785896062	-0.05185408227118603	0.2021860862261404	-0.1746749590254302	-0.1746749590254294	0.03598880312860028	0.008228507066716798	-0.1302041734752803	0.009208548720494977	-3.189348153732887e-09	4.337315592107092e-09	-1.2415440076199e-09	1.853631288170971e-09	-1.257982525144958e-09	5.192074396005122e-09	-7.924673053136369e-10
0.51	0.04250372327174173	0.1220229555683137	0.908602266044505	0.1227159960925501	-0.2956611574869862	-0.2850978667589202	-0.2042341630157065	0.1924516445573405	0.1924516445573196	-0.02112515814924075	-0.1744059664653724	0.1197451981860347	0.172703971512926	-0.1047949511784271	0.07125021119349657	-0.002163335583424877	-0.003436931486863983	0.03094394258139049	-0.04571623706129285	0.0615689032576737	-0.06068806581446753	-0.0606880658144693	0.05087579558025059	0.001110740026165155	0.06040229325648126	0.05941207595892785	0.04175304177291056	0.04469129201999056	-0.003933743021782739	-0.1259617831601253	0.04708671463475295	-0.06272435079774857	0.01284402932008315	-16.78789836216455	28.10645253070253	-2.39274380270335	2.371839751078484	-461.6417219203975	-27.6488400336977	-25.7573477783195	-0.08351522794241037	-0.03610745737308692	-0.000764647487964814	0.05151032667750442	0.04446141498655513	-0.0544783081204069	0.2030996549918244	-0.1725090403909649	-0.1725090403907574	0.03407780863846903	0.003348549462417579	-0.1333872444775706	0.00651013914474647	-3.200449636989533e-09	4.363858127428544e-09	-1.248664543918799e-09	1.865485223451397e-09	-1.311194155254684e-09	5.140161338399053e-09	-7.834725623184928e-10
0.52	0.04145163980221698	0.122733603305993	0.9085806018577692	0.1226841734143023	-0.2953494988486536	-0.2855576922077582	-0.2036083285052394	0.1918360605579322	0.1918360605579216	-0.02061474312524582	-0.1743946336700286	0.1203424498054497	0.1732983703523773	-0.1056189963417761	0.07087430982209587	-0.002169233812284761	-0.002925570331506986	0.03138660722988161	-0.04624800062699809	0.06359828489908549	-0.06243082491177179	-0.06243082491177185	0.05120327218318909	0.001154653558067161	0.05904028418906343	0.05946307572111417	0.04134794340459869	0.04509237977298621	-0.003955462644372356	-0.1247532799998551	0.04552102084556644	-0.06257647852237168	0.01303762518925972	-17.27965388906255	28.06720600571329	-2.316663468844618	2.515212566991561	-461.6520081246525	-27.59378910342239	-25.75302781209443	-0.08100632143815362	-0.03904828317120815	-0.0003200456637615841	0.04977832640966273	0.04422966123083204	-0.05082877923080488	0.2025293631971326	-0.1771827105324505	-0.1771827105324458	0.03126765150974013	0.006827269929867185	-0.1395034197113275	0.003665430037272132	-3.204133894909334e-09	4.369647629546067e-09	-1.248940280164701e-09	1.880075647355566e-09	-1.366746036338782e-09	5.062591256453626e-09	-7.711397648028645e-10
0.53	0.04039139600321403	0.1234403463858695	0.9085588865338295	0.1226575222821505	-0.2950334509872143	-0.2860228014085454	-0.2029621980147369	0.1912029892163201	0.1912029892162881	-0.02010117548385833	-0.1743828898106639	0.1209258563515752	0.1738931404878902	-0.1064273154448294	0.07046977255125532	-0.002173579178901137	-0.002402798913097831	0.03182172412434375	-0.04677241469421917	0.06562752468280213	-0.06418527141469441	-0.06418527141469428	0.05150622882907953	0.00119347714584862	0.05763401564278205	0.05948648887116809	0.04096566764395245	0.04547005909429457	-0.003979026999148971	-0.1235838937964068	0.04403083873344679	-0.06243346647134873	0.01321244292516523	-17.7464589781429	28.02841624553359	-2.243756694208334	2.637535871952719	-461.6467931630869	-27.54104236089975	-25.74859189791937	-0.08037783949293469	-0.04183611215672745	-0.0004542918153817518	0.05380474075199137	0.0429666692228016	-0.05303364013115222	0.2030780082138335	-0.1748496673493285	-0.1748496673493482	0.02920600618638501	0.002313392845418569	-0.142240419711886	0.001009421054147963	-3.203880804702911e-09	4.378688875723821e-09	-1.265403849456496e-09	1.888622631077077e-09	-1.467970532937899e-09	4.988948159540311e-09	-7.54611647387396e-10
0.54	0.03932314238623251	0.1241429081604142	0.9085371352542926	0.1226361545024298	-0.2947130891637041	-0.2864931119339366	-0.2022957837819435	0.190552318600216	0.1905523186002177	-0.01958469900899864	-0.17437077701752	0.1214949898427129	0.1744880107876162	-0.1072209599380457	0.07003804875576204	-0.002176424931751911	-0.001868899846876709	0.03224939964556499	-0.04728826554797786	0.0676550333567156	-0.06595067980470551	-0.0659506798047052	0.05178503887727236	0.001228440319357239	0.05618567319148618	0.05948310856380837	0.04058339188339009	0.04584773841560286	-0.004002591353690283	-0.1224145075929233	0.04254065662133556	-0.06229045442032627	0.01338726066113604	-18.2141993209885	27.9890051121875	-2.169854048722301	2.764670954872234	-461.6572234817345	-27.49275158004706	-25.74403910809996	-0.07807139947064134	-0.04448558810188388	-2.012291063491067e-05	0.05200385597212758	0.04274138658266489	-0.04911613653836745	0.2021831412365367	-0.1793750879501199	-0.1793750879501164	0.02643833197025497	0.006055187075229546	-0.1479182007143678	-0.001693261445495961	-3.199271499548324e-09	4.39132779618098e-09	-1.299777361692684e-09	1.890483255447564e-09	-1.619726433936613e-09	4.919649812024227e-09	-7.334418994444444e-10
0.55	0.03824702334132792	0.1248410214371822	0.9085153628747048	0.1226201799532539	-0.294388487597765	-0.2869685306767195	-0.2016091091168545	0.18988394254003	0.189883942540001	-0.01906555418628482	-0.1743583265584203	0.1220494373616283	0.1750827160319409	-0.1080007133033523	0.06958052631923183	-0.002177816004992958	-0.001324169931071373	0.03266982535597676	-0.04779367964591752	0.06967907500243127	-0.06772603904949669	-0.06772603904949569	0.05204030008816516	0.001261447131677135	0.05469759315267553	0.05945390196606189	0.0402230391525203	0.04620308107810308	-0.004027943044501377	-0.1212826340561718	0.04112410225852593	-0.06215258556057298	0.01354389030639563	-18.65761147176995	27.9501985162353	-2.099052492159471	2.871476936105896	-461.6519916066528	-27.44625433675358	-25.73936659096828	-0.0776072708189593	-0.0469972353025519	-0.0001636928888034155	0.05598318730122596	0.0415300245629403	-0.05098317230136343	0.2023909775041818	-0.1768422203797092	-0.1768422203796399	0.02452661294705103	0.001892423144599856	-0.1501889533980074	-0.004140564940986412	-3.179456809979484e-09	4.419024794960179e-09	-1.348030430907114e-09	1.888365367496813e-09	-1.688409770501114e-09	4.901115327760841e-09	-7.103955369696575e-10
0.5600000000000001	0.03716317076962088	0.1255344371568101	0.9084935835657127	0.1226097078288252	-0.2940597144024703	-0.287448949385657	-0.2009022187750529	0.1891977677118389	0.1891977677118366	-0.01854396543199818	-0.1743455522322613	0.1225888168705696	0.1756770079690874	-0.1087676652989902	0.06909853732774872	-0.002177810812591282	-0.0007684148986101393	0.03308372551809309	-0.04828825877904287	0.07169816869875119	-0.06951043339973384	-0.06951043339973216	0.0522738251909823	0.001293213737369128	0.05317207119652003	0.05940044712824309	0.03986268642170837	0.04655842374059803	-0.004053294735045504	-0.1201507605193991	0.03970754789571807	-0.06201471670082825	0.01370051995170485	-19.10196475091801	27.91076077259214	-2.027241166465348	2.98332582713685	-461.6625052492595	-27.40430505164082	-25.73457202393162	-0.07551112553677272	-0.04937889909259732	0.000259130217916595	0.05420887930337707	0.04143627692358848	-0.0469491435755437	0.2011935513574238	-0.1811821090392875	-0.1811821090392835	0.02209111035515573	0.005807145749580203	-0.1554065841834886	-0.006542909459999342	-3.14139565911354e-09	4.464791487725827e-09	-1.412938968495436e-09	1.881473264760577e-09	-1.657406029744562e-09	4.943497479400694e-09	-6.850972370566682e-10
